<svg xmlns="http://www.w3.org/2000/svg" viewBox="0 0 320 430" width="320" height="430" font-family="Verdana, sans-serif">
<defs>
  <linearGradient id="frame" x1="0%" y1="0%" x2="100%" y2="100%">
    <stop offset="0%" stop-color="#F6C9E0"/>
    <stop offset="50%" stop-color="#D9B8F0"/>
    <stop offset="100%" stop-color="#B9CFFA"/>
  </linearGradient>
  <linearGradient id="titlebar" x1="0%" y1="0%" x2="100%" y2="0%">
    <stop offset="0%" stop-color="#FF8FC4"/>
    <stop offset="100%" stop-color="#A98CF0"/>
  </linearGradient>
  <linearGradient id="lcd" x1="0%" y1="0%" x2="0%" y2="100%">
    <stop offset="0%" stop-color="#241636"/>
    <stop offset="100%" stop-color="#160E22"/>
  </linearGradient>
  <linearGradient id="barglow" x1="0%" y1="100%" x2="0%" y2="0%">
    <stop offset="0%" stop-color="#FF9FD6"/>
    <stop offset="55%" stop-color="#C9A6FF"/>
    <stop offset="100%" stop-color="#8FE3FF"/>
  </linearGradient>
  <filter id="softshadow" x="-20%" y="-20%" width="140%" height="140%">
    <feDropShadow dx="0" dy="2" stdDeviation="2" flood-color="#000" flood-opacity="0.25"/>
  </filter>
  <style>
    .twinkle{animation:tw 2.4s ease-in-out infinite;}
    .twinkle.d2{animation-delay:.6s;}
    .twinkle.d3{animation-delay:1.2s;}
    .twinkle.d4{animation-delay:1.8s;}
    @keyframes tw{0%,100%{opacity:.25; transform:scale(0.8);} 50%{opacity:1; transform:scale(1.15);}}

    .marquee{animation:scroll 7s linear infinite;}
    @keyframes scroll{0%{transform:translateX(0);} 45%{transform:translateX(-180px);} 50%{transform:translateX(-180px);} 95%{transform:translateX(0);} 100%{transform:translateX(0);}}

    .bar{transform-box:fill-box; transform-origin:bottom; animation:eq 1.1s ease-in-out infinite;}
    .b1{animation-duration:.9s;}
    .b2{animation-duration:1.3s; animation-delay:.1s;}
    .b3{animation-duration:1.0s; animation-delay:.25s;}
    .b4{animation-duration:1.4s; animation-delay:.05s;}
    .b5{animation-duration:.8s; animation-delay:.3s;}
    .b6{animation-duration:1.2s; animation-delay:.15s;}
    .b7{animation-duration:1.05s; animation-delay:.35s;}
    .b8{animation-duration:1.25s; animation-delay:.2s;}
    .b9{animation-duration:.95s; animation-delay:.1s;}
    .b10{animation-duration:1.15s; animation-delay:.28s;}
    .b11{animation-duration:1.35s;}
    .b12{animation-duration:.85s; animation-delay:.18s;}
    @keyframes eq{0%,100%{transform:scaleY(0.25);} 50%{transform:scaleY(1);}}

    .nowplaying-glow{animation:glow 1.8s ease-in-out infinite;}
    @keyframes glow{0%,100%{opacity:.55;} 50%{opacity:1;}}

    .spin{animation:spin 6s linear infinite; transform-box:fill-box; transform-origin:center;}
    @keyframes spin{from{transform:rotate(0deg);} to{transform:rotate(360deg);}}
  </style>
</defs>

<!-- outer frame -->
<rect x="2" y="2" width="316" height="426" rx="14" fill="url(#frame)" stroke="#7A5FA8" stroke-width="2" filter="url(#softshadow)"/>

<!-- title bar -->
<rect x="10" y="10" width="300" height="24" rx="6" fill="url(#titlebar)"/>
<text x="22" y="27" fill="#FFFFFF" font-size="12" font-weight="bold" letter-spacing="1">✩ MAHOU AMP ✩</text>
<circle cx="278" cy="22" r="5" fill="#FFFFFF" opacity="0.85"/>
<circle cx="293" cy="22" r="5" fill="#FFFFFF" opacity="0.85"/>
<text x="278" y="25" font-size="9" fill="#A98CF0" text-anchor="middle">_</text>
<text x="293" y="25.5" font-size="8" fill="#A98CF0" text-anchor="middle">x</text>

<!-- LCD display -->
<rect x="18" y="42" width="284" height="58" rx="6" fill="url(#lcd)" stroke="#5C3FA0" stroke-width="2"/>

<!-- marquee now-playing text, clipped -->
<clipPath id="clip1"><rect x="26" y="50" width="180" height="14"/></clipPath>
<g clip-path="url(#clip1)">
  <text class="marquee" x="26" y="61" fill="#FFB6E6" font-size="12" font-weight="bold">♪ Megumi Hayashibara — Midnight Blue ♪&#160;&#160;&#160;&#160;&#160;&#160;</text>
</g>

<text x="26" y="80" fill="#9FE9FF" font-size="9">00:42 / 04:18</text>
<text x="220" y="80" fill="#C9A6FF" font-size="9">128kbps ☆ 44kHz</text>

<!-- mini equalizer in LCD -->
<g>
  <rect class="bar b1" x="226" y="50" width="5" height="14" fill="url(#barglow)"/>
  <rect class="bar b2" x="233" y="50" width="5" height="14" fill="url(#barglow)"/>
  <rect class="bar b3" x="240" y="50" width="5" height="14" fill="url(#barglow)"/>
  <rect class="bar b4" x="247" y="50" width="5" height="14" fill="url(#barglow)"/>
  <rect class="bar b5" x="254" y="50" width="5" height="14" fill="url(#barglow)"/>
  <rect class="bar b6" x="261" y="50" width="5" height="14" fill="url(#barglow)"/>
  <rect class="bar b7" x="268" y="50" width="5" height="14" fill="url(#barglow)"/>
  <rect class="bar b8" x="275" y="50" width="5" height="14" fill="url(#barglow)"/>
  <rect class="bar b9" x="282" y="50" width="5" height="14" fill="url(#barglow)"/>
  <rect class="bar b10" x="289" y="50" width="5" height="14" fill="url(#barglow)"/>
</g>

<!-- twinkle stars scattered -->
<text class="twinkle" x="20" y="46" font-size="9" fill="#FFE9A8">✦</text>
<text class="twinkle d2" x="295" y="96" font-size="9" fill="#FFE9A8">✦</text>
<text class="twinkle d3" x="14" y="120" font-size="8" fill="#FFD6F0">✧</text>
<text class="twinkle d4" x="305" y="40" font-size="8" fill="#FFD6F0">✧</text>

<!-- seek bar -->
<rect x="18" y="108" width="284" height="8" rx="4" fill="#3A2860"/>
<rect x="18" y="108" width="62" height="8" rx="4" fill="url(#barglow)"/>
<circle cx="80" cy="112" r="6" fill="#FFFFFF" stroke="#A98CF0" stroke-width="2"/>

<!-- transport controls -->
<g filter="url(#softshadow)">
  <circle cx="40" cy="138" r="14" fill="#FFFFFF" stroke="#D89FE8" stroke-width="2"/>
  <path d="M45,131 L34,138 L45,145 Z" fill="#B07AD0"/>

  <circle cx="76" cy="138" r="16" fill="#FF8FC4" stroke="#FFFFFF" stroke-width="2"/>
  <path d="M70,129 L70,147 L86,138 Z" fill="#FFFFFF"/>

  <circle cx="112" cy="138" r="14" fill="#FFFFFF" stroke="#D89FE8" stroke-width="2"/>
  <rect x="107" y="131" width="4" height="14" fill="#B07AD0"/>
  <rect x="115" y="131" width="4" height="14" fill="#B07AD0"/>

  <circle cx="148" cy="138" r="14" fill="#FFFFFF" stroke="#D89FE8" stroke-width="2"/>
  <path d="M143,131 L154,138 L143,145 Z" fill="#B07AD0"/>
</g>

<!-- spinning sparkle disc (decorative "now playing" wand spin) -->
<g class="spin">
  <circle cx="270" cy="138" r="16" fill="#2A1A40" stroke="#FFD6F0" stroke-width="2"/>
  <circle cx="270" cy="138" r="4" fill="#FFE9A8"/>
  <path d="M270,124 L272,134 L270,138 L268,134 Z" fill="#FFD6F0"/>
</g>

<!-- volume label -->
<text x="190" y="142" fill="#7A5FA8" font-size="9">VOL</text>
<rect x="190" y="148" width="60" height="6" rx="3" fill="#3A2860"/>
<rect x="190" y="148" width="42" height="6" rx="3" fill="url(#barglow)"/>

<!-- playlist panel -->
<rect x="18" y="172" width="284" height="244" rx="8" fill="#FBF3FA" stroke="#C9A6E8" stroke-width="2"/>
<rect x="18" y="172" width="284" height="26" rx="8" fill="url(#titlebar)"/>
<text x="30" y="189" fill="#FFFFFF" font-size="11" font-weight="bold">PLAYLIST ✩ 4 tracks</text>

<!-- track 1: now playing -->
<rect x="26" y="206" width="268" height="38" rx="6" fill="#FFE1F2" stroke="#FF8FC4" stroke-width="1.5"/>
<text class="nowplaying-glow" x="34" y="222" font-size="11" fill="#D6418F">▶</text>
<text x="50" y="222" font-size="11" font-weight="bold" fill="#A8347A">Megumi Hayashibara</text>
<text x="50" y="236" font-size="10" fill="#C25FA0">Midnight Blue</text>
<text x="288" y="222" font-size="8" fill="#C25FA0" text-anchor="end">NOW PLAYING</text>
<text x="288" y="236" font-size="9" fill="#C25FA0" text-anchor="end">04:18</text>

<!-- track 2 -->
<text x="34" y="266" font-size="11" fill="#9A86C0">2.</text>
<text x="50" y="266" font-size="11" fill="#5C4878">Shadow Hearts Covenant</text>
<text x="50" y="280" font-size="10" fill="#8A78A8">Hardcore to the Brain</text>
<text x="288" y="266" font-size="9" fill="#9A86C0" text-anchor="end">03:05</text>
<line x1="26" y1="290" x2="294" y2="290" stroke="#E8D6F2" stroke-width="1"/>

<!-- track 3 -->
<text x="34" y="310" font-size="11" fill="#9A86C0">3.</text>
<text x="50" y="310" font-size="11" fill="#5C4878">Tekken 3</text>
<text x="50" y="324" font-size="10" fill="#8A78A8">Jin Kazama Theme</text>
<text x="288" y="310" font-size="9" fill="#9A86C0" text-anchor="end">02:47</text>
<line x1="26" y1="334" x2="294" y2="334" stroke="#E8D6F2" stroke-width="1"/>

<!-- track 4 -->
<text x="34" y="354" font-size="11" fill="#9A86C0">4.</text>
<text x="50" y="354" font-size="11" fill="#5C4878">Emi Evans</text>
<text x="50" y="368" font-size="9.5" fill="#8A78A8">~ Kuroi Uta (International ver)</text>
<text x="288" y="354" font-size="9" fill="#9A86C0" text-anchor="end">03:52</text>
<line x1="26" y1="378" x2="294" y2="378" stroke="#E8D6F2" stroke-width="1"/>

<!-- footer -->
<text x="30" y="404" font-size="9" fill="#B89FD8">✩ shuffle: off</text>
<text x="120" y="404" font-size="9" fill="#B89FD8">repeat: playlist</text>
<text x="230" y="404" font-size="9" fill="#B89FD8">4 tracks ✩</text>
</svg>
